<?xml version="1.0" encoding="utf-8"?>
<!-- Generator: Adobe Illustrator 23.0.4, SVG Export Plug-In . SVG Version: 6.00 Build 0)  -->
<svg version="1.1" id="Livello_1" xmlns="http://www.w3.org/2000/svg" xmlns:xlink="http://www.w3.org/1999/xlink" x="0px" y="0px"
	 viewBox="0 0 595.3 841.9" style="enable-background:new 0 0 595.3 841.9;" xml:space="preserve">
<style type="text/css">
	.st0{fill:#FFFFFF;}
</style>
<g>
	<g>
		<g>
			<g>
				<g>
					<g>
						<g>
							<g>
								<path class="st0" d="M342.8,437.2c0,0,0.4-0.9,1-2.5c0.4-1.2,1.2-3.6,2-6.9c0.7-3.1,1.2-6.5,1.4-10
									c0.3-3.7,0.2-7.7-0.1-11.6c-0.3-3.8-1-7.7-1.9-11.4c-0.9-3.5-1.9-6.9-3-9.7c-0.8-2.2-1.8-4.4-2.8-6.6
									c-0.3-0.7-0.7-1.4-0.9-1.8l-0.3-0.6l-0.4,0.2l0.3,0.6c0.2,0.4,0.5,1,0.9,1.8c1,2.1,2,4.3,2.8,6.5c1.1,2.8,2.1,6.1,3,9.6
									c0.9,3.7,1.6,7.6,1.9,11.4c0.3,3.9,0.4,7.8,0.1,11.5c-0.3,3.5-0.7,6.9-1.4,10c-0.7,3.3-1.5,5.7-1.9,6.8
									c-0.6,1.6-1,2.5-1,2.5L342.8,437.2z"/>
							</g>
						</g>
					</g>
				</g>
			</g>
			<g>
				<g>
					<g>
						<g>
							<path class="st0" d="M335.3,373.5c0.7,1.4,1.7,2.9,2.5,4c0.8,1.2,1.5,2,1.7,1.8c0.3-0.1,0.1-1.2-0.3-2.5
								c-0.5-1.3-1.2-3-2-4.4c-1.6-2.8-2.6-3.4-3.1-3.1C333.7,369.6,333.8,370.8,335.3,373.5z"/>
						</g>
					</g>
				</g>
			</g>
			<g>
				<g>
					<g>
						<g>
							<g>
								<path class="st0" d="M334,379.7c0-0.3,0.2-0.6,0.6-0.7s1.1,0.1,2.1,0.5s2.2,1.1,3,1.7c0.9,0.7,1.5,1.3,1.5,1.7
									c-0.1,0.7-2.7,0-4.6-0.9C334.6,381.2,333.9,380.4,334,379.7z"/>
							</g>
						</g>
					</g>
				</g>
				<g>
					<g>
						<g>
							<g>
								<path class="st0" d="M342.5,379.3c0.6-2.2,1.2-2.6,1.8-2.1c0.3,0.2,0.5,0.6,0.6,1.3c0.1,0.6,0,1.5-0.4,2.6
									c-0.2,0.5-0.4,1.1-0.6,1.6s-0.5,1-0.7,1.4c-0.5,0.8-1,1.2-1.3,1s-0.2-1.1-0.1-2.2C341.9,381.7,342.2,380.4,342.5,379.3z"/>
							</g>
						</g>
					</g>
				</g>
			</g>
			<g>
				<g>
					<g>
						<g>
							<g>
								<path class="st0" d="M335.8,386.3c0.1-0.8,1-1.1,3.3,0.1c0.6,0.3,1.2,0.7,1.8,1.1c0.6,0.4,1.2,0.9,1.6,1.3
									c0.5,0.4,0.9,0.9,1.2,1.3c0.3,0.4,0.4,0.7,0.4,0.9c-0.1,0.4-0.9,0.3-1.9,0c-1.1-0.4-2.4-0.9-3.5-1.6
									c-1.1-0.6-1.9-1.2-2.3-1.7C335.9,387.2,335.8,386.7,335.8,386.3z"/>
							</g>
						</g>
					</g>
				</g>
				<g>
					<g>
						<g>
							<g>
								<path class="st0" d="M346.1,386.9c0.5-1.3,0.9-2.1,1.3-2.4s0.8-0.3,1.1,0c0.3,0.3,0.5,0.9,0.5,1.6c0,0.8-0.2,1.8-0.7,3.1
									c-0.5,1.3-1.3,2.6-2,3.5s-1.4,1.4-1.7,1c-0.3-0.3-0.2-1.4,0.1-2.7C345.2,389.7,345.6,388.2,346.1,386.9z"/>
							</g>
						</g>
					</g>
				</g>
			</g>
			<g>
				<g>
					<g>
						<g>
							<g>
								<path class="st0" d="M337.3,393.9c0.1-0.5,0.4-0.7,1-0.7s1.5,0.3,2.8,1.2c0.6,0.4,1.3,0.9,1.9,1.5c0.3,0.3,0.6,0.6,0.9,0.9
									s0.6,0.6,0.8,0.9c0.5,0.6,0.9,1.1,1.2,1.6c0.3,0.5,0.4,0.9,0.3,1.1c-0.2,0.5-1.1,0.3-2.2-0.3c-1.2-0.5-2.6-1.4-3.8-2.3
									c-1.2-0.9-2-1.6-2.5-2.2C337.3,394.9,337.2,394.3,337.3,393.9z"/>
							</g>
						</g>
					</g>
				</g>
				<g>
					<g>
						<g>
							<g>
								<path class="st0" d="M349.1,395.8c0.7-1.4,1.3-2.3,1.8-2.6c0.5-0.4,0.9-0.2,1.3,0.2c0.7,0.8,0.8,2.6-0.8,5.5
									c-0.8,1.4-1.8,2.8-2.8,3.7c-1,0.9-1.8,1.4-2,0.9c-0.1-0.2-0.1-0.6,0-1.2c0.1-0.5,0.3-1.2,0.6-1.9
									C347.6,399,348.3,397.2,349.1,395.8z"/>
							</g>
						</g>
					</g>
				</g>
			</g>
			<g>
				<g>
					<g>
						<g>
							<g>
								<path class="st0" d="M338.7,403.1c0.2-0.5,0.5-0.7,1.2-0.6c0.3,0.1,0.7,0.2,1.2,0.5s1,0.7,1.6,1.2s1.3,1.2,1.9,1.9
									c0.6,0.7,1.2,1.4,1.6,2.1s0.8,1.4,1,1.9c0.2,0.6,0.3,1,0.2,1.2c-0.2,0.5-1.2,0.1-2.3-0.7c-0.6-0.4-1.2-0.9-1.9-1.4
									c-0.7-0.5-1.3-1.1-1.9-1.6c-1.2-1.1-1.9-2-2.3-2.7C338.5,404.2,338.5,403.6,338.7,403.1z"/>
							</g>
						</g>
					</g>
				</g>
				<g>
					<g>
						<g>
							<g>
								<path class="st0" d="M351,406.9c1-1.4,1.8-2.2,2.4-2.5s1-0.1,1.3,0.4s0.4,1.2,0.2,2.2c-0.1,0.5-0.3,1-0.6,1.6
									c-0.3,0.6-0.7,1.3-1.2,2s-1.1,1.4-1.8,2c-0.6,0.6-1.3,1.2-1.8,1.6c-1.2,0.8-2.1,1.2-2.3,0.7c-0.1-0.2-0.1-0.7,0.1-1.2
									c0.1-0.3,0.2-0.6,0.4-0.9c0.2-0.3,0.3-0.7,0.5-1.1c0.4-0.7,0.9-1.6,1.4-2.4C350,408.4,350.5,407.6,351,406.9z"/>
							</g>
						</g>
					</g>
				</g>
			</g>
			<g>
				<g>
					<g>
						<g>
							<g>
								<path class="st0" d="M338.1,414.5c0.3-0.5,0.8-0.7,1.5-0.5c0.4,0.1,0.8,0.4,1.3,0.8s1,0.9,1.6,1.7c1.2,1.5,2.4,3.4,3.1,5.2
									c0.4,0.9,0.6,1.7,0.7,2.4c0.1,0.7,0.1,1.2-0.1,1.4c-0.4,0.5-1.4-0.1-2.5-1.3c-0.6-0.6-1.2-1.3-1.8-2
									c-0.3-0.4-0.6-0.7-0.9-1.1s-0.6-0.8-0.9-1.1c-0.3-0.4-0.5-0.7-0.7-1s-0.4-0.6-0.6-0.9c-0.3-0.6-0.6-1.1-0.7-1.5
									C337.7,415.6,337.8,415,338.1,414.5z"/>
							</g>
						</g>
					</g>
				</g>
				<g>
					<g>
						<g>
							<g>
								<path class="st0" d="M351.4,421.3c0.7-0.7,1.4-1.3,1.9-1.7c0.5-0.4,1-0.7,1.4-0.8c0.7-0.2,1.2,0.1,1.4,0.8
									c0.1,0.3,0.2,0.7,0.1,1.2c0,0.4-0.2,0.9-0.4,1.5c-0.2,0.5-0.6,1.1-1.1,1.8c-0.2,0.3-0.5,0.6-0.8,1c-0.3,0.3-0.7,0.7-1.1,1
									c-1.5,1.4-3.4,2.6-4.9,3.3c-1.5,0.7-2.7,0.8-2.8,0.2c-0.1-0.3,0.1-0.8,0.5-1.4s0.9-1.3,1.5-2
									C348.3,424.5,349.9,422.7,351.4,421.3z"/>
							</g>
						</g>
					</g>
				</g>
			</g>
		</g>
		<g>
			<g>
				<g>
					<g>
						<g>
							<g>
								<path class="st0" d="M252.4,397.4c0,0-0.4,0.9-1,2.5c-0.4,1.2-1.2,3.6-1.9,6.9c-0.7,3.1-1.2,6.6-1.4,10
									c-0.2,3.7-0.2,7.7,0.2,11.6c0.4,3.8,1,7.7,2,11.4c0.9,3.5,2,6.9,3.1,9.7c0.9,2.2,1.8,4.4,2.9,6.6c0.4,0.7,0.7,1.4,0.9,1.8
									l0.3,0.6l0.4-0.2l-0.3-0.6c-0.2-0.4-0.5-1-0.9-1.8c-1-2.1-2-4.3-2.9-6.5c-1.1-2.8-2.2-6.1-3.1-9.6c-0.9-3.7-1.6-7.6-2-11.4
									c-0.4-3.9-0.4-7.8-0.2-11.5c0.2-3.5,0.7-6.9,1.4-10c0.7-3.3,1.5-5.7,1.9-6.9c0.6-1.6,1-2.5,1-2.5L252.4,397.4z"/>
							</g>
						</g>
					</g>
				</g>
			</g>
			<g>
				<g>
					<g>
						<g>
							<path class="st0" d="M260.3,461c-0.7-1.4-1.7-2.9-2.5-4c-0.8-1.2-1.5-2-1.7-1.8c-0.3,0.1-0.1,1.2,0.4,2.5s1.2,3,2,4.4
								c1.6,2.7,2.6,3.4,3.1,3.1C262,464.9,261.8,463.7,260.3,461z"/>
						</g>
					</g>
				</g>
			</g>
			<g>
				<g>
					<g>
						<g>
							<g>
								<path class="st0" d="M261.6,454.8c0,0.3-0.2,0.6-0.6,0.7s-1.1-0.1-2.1-0.5s-2.2-1.1-3.1-1.7c-0.9-0.7-1.5-1.3-1.5-1.7
									c0-0.7,2.7,0,4.6,0.8C261,453.3,261.6,454.1,261.6,454.8z"/>
							</g>
						</g>
					</g>
				</g>
				<g>
					<g>
						<g>
							<g>
								<path class="st0" d="M253.1,455.2c-0.6,2.2-1.2,2.6-1.8,2.1c-0.3-0.2-0.5-0.6-0.6-1.3c-0.1-0.6,0-1.5,0.3-2.6
									c0.2-0.5,0.4-1.1,0.6-1.6c0.2-0.5,0.5-1,0.7-1.4c0.5-0.8,1-1.2,1.3-1s0.2,1.1,0.1,2.2C253.6,452.8,253.4,454.1,253.1,455.2z
									"/>
							</g>
						</g>
					</g>
				</g>
			</g>
			<g>
				<g>
					<g>
						<g>
							<g>
								<path class="st0" d="M259.7,448.2c-0.1,0.8-1,1.1-3.3-0.1c-0.6-0.3-1.2-0.7-1.8-1.1s-1.2-0.9-1.7-1.3s-0.9-0.9-1.2-1.3
									s-0.4-0.7-0.4-0.9c0.1-0.4,0.9-0.3,1.9,0c1.1,0.3,2.4,0.9,3.5,1.6c1.1,0.6,1.9,1.2,2.4,1.7
									C259.6,447.3,259.8,447.7,259.7,448.2z"/>
							</g>
						</g>
					</g>
				</g>
				<g>
					<g>
						<g>
							<g>
								<path class="st0" d="M249.4,447.7c-0.5,1.3-0.9,2.1-1.3,2.4c-0.4,0.3-0.8,0.3-1.1,0s-0.5-0.9-0.6-1.6c0-0.8,0.2-1.8,0.7-3.1
									c0.5-1.3,1.3-2.6,2-3.5s1.4-1.4,1.6-1c0.3,0.3,0.2,1.4-0.1,2.7C250.3,444.8,249.9,446.4,249.4,447.7z"/>
							</g>
						</g>
					</g>
				</g>
			</g>
			<g>
				<g>
					<g>
						<g>
							<g>
								<path class="st0" d="M258.2,440.6c-0.1,0.5-0.4,0.8-1,0.7c-0.6,0-1.5-0.3-2.8-1.2c-0.6-0.4-1.3-0.9-1.9-1.5
									c-0.3-0.3-0.6-0.6-0.9-0.8c-0.3-0.3-0.6-0.6-0.8-0.9c-0.5-0.6-0.9-1.1-1.2-1.6s-0.4-0.9-0.3-1.1c0.2-0.5,1.1-0.3,2.2,0.3
									c1.2,0.5,2.6,1.4,3.9,2.3c1.2,0.9,2,1.6,2.5,2.2C258.1,439.6,258.3,440.2,258.2,440.6z"/>
							</g>
						</g>
					</g>
				</g>
				<g>
					<g>
						<g>
							<g>
								<path class="st0" d="M246.4,438.8c-0.7,1.4-1.3,2.3-1.8,2.6c-0.5,0.4-0.9,0.2-1.3-0.2c-0.7-0.8-0.8-2.6,0.8-5.5
									c0.8-1.4,1.8-2.8,2.8-3.8c0.9-0.9,1.8-1.4,2-1c0.1,0.2,0.1,0.6,0,1.2c-0.1,0.5-0.3,1.2-0.6,1.9
									C247.8,435.6,247.1,437.3,246.4,438.8z"/>
							</g>
						</g>
					</g>
				</g>
			</g>
			<g>
				<g>
					<g>
						<g>
							<g>
								<path class="st0" d="M256.7,431.4c-0.2,0.5-0.5,0.7-1.2,0.6c-0.3-0.1-0.7-0.2-1.2-0.5s-1-0.6-1.6-1.2
									c-0.6-0.5-1.3-1.2-1.9-1.9c-0.6-0.7-1.2-1.4-1.6-2.1c-0.4-0.7-0.8-1.4-1-1.9c-0.2-0.6-0.3-1-0.2-1.2
									c0.2-0.5,1.2-0.1,2.3,0.6c0.6,0.4,1.2,0.9,1.9,1.4s1.3,1.1,1.9,1.6c1.2,1.1,1.9,2,2.3,2.7
									C256.9,430.3,256.9,430.9,256.7,431.4z"/>
							</g>
						</g>
					</g>
				</g>
				<g>
					<g>
						<g>
							<g>
								<path class="st0" d="M244.4,427.7c-1,1.4-1.7,2.3-2.3,2.6c-0.6,0.3-1,0.1-1.3-0.4s-0.4-1.2-0.2-2.2c0.1-0.5,0.3-1,0.6-1.6
									s0.7-1.3,1.2-2s1.1-1.4,1.7-2c0.6-0.6,1.3-1.2,1.8-1.6c1.2-0.8,2.1-1.2,2.3-0.7c0.1,0.2,0.1,0.7-0.1,1.2
									c-0.1,0.3-0.2,0.6-0.4,0.9c-0.1,0.3-0.3,0.7-0.5,1.1c-0.4,0.7-0.9,1.6-1.4,2.4C245.4,426.2,244.9,427,244.4,427.7z"/>
							</g>
						</g>
					</g>
				</g>
			</g>
			<g>
				<g>
					<g>
						<g>
							<g>
								<path class="st0" d="M257.3,420c-0.3,0.5-0.8,0.7-1.5,0.5c-0.4-0.1-0.8-0.4-1.3-0.8s-1-0.9-1.6-1.7
									c-1.2-1.5-2.4-3.4-3.1-5.2c-0.4-0.9-0.6-1.7-0.7-2.4c-0.1-0.7-0.1-1.2,0.1-1.4c0.4-0.5,1.4,0.1,2.5,1.3
									c0.6,0.6,1.2,1.2,1.8,2c0.3,0.4,0.6,0.7,0.9,1.1c0.3,0.4,0.6,0.8,0.9,1.1c0.3,0.4,0.5,0.7,0.8,1c0.2,0.3,0.4,0.6,0.6,0.9
									c0.4,0.6,0.6,1.1,0.7,1.5C257.7,418.9,257.6,419.5,257.3,420z"/>
							</g>
						</g>
					</g>
				</g>
				<g>
					<g>
						<g>
							<g>
								<path class="st0" d="M243.9,413.3c-0.7,0.7-1.3,1.3-1.9,1.7c-0.5,0.4-1,0.7-1.3,0.8c-0.7,0.2-1.2-0.1-1.4-0.7
									c-0.1-0.3-0.2-0.7-0.1-1.2c0-0.4,0.2-0.9,0.4-1.5c0.2-0.5,0.6-1.1,1.1-1.8c0.2-0.3,0.5-0.6,0.8-1c0.3-0.3,0.7-0.7,1-1
									c1.5-1.4,3.4-2.6,4.9-3.3c1.5-0.7,2.7-0.8,2.8-0.2c0.1,0.3-0.1,0.8-0.5,1.4s-0.9,1.3-1.5,2.1
									C247,410,245.4,411.8,243.9,413.3z"/>
							</g>
						</g>
					</g>
				</g>
			</g>
		</g>
		<g>
			<g>
				<path class="st0" d="M260.2,419.5c0.1,0.5,0.1,0.9,0.2,1.4l15.8-44.4l57.9,20.6c0-0.5,0-0.9,0.1-1.4l-58.8-20.9l-15.5,43.7
					C260,418.7,260.1,419.1,260.2,419.5z"/>
			</g>
			<g>
				<path class="st0" d="M337,427.3l-15.7,44.1l-58-20.6c0.2,0.5,0.2,1,0.2,1.5l57.9,20.6l0.6,0.2l15.5-43.5
					C337.2,428.9,337,428.1,337,427.3z"/>
			</g>
		</g>
		<g>
			<g>
				<path class="st0" d="M264.2,466l-7.6-76.6l76.6-7.6l7.6,76.6L264.2,466z M258,390.6l7.4,74l74-7.4l-7.4-74L258,390.6z"/>
			</g>
		</g>
	</g>
	<g>
		<g>
			<path class="st0" d="M271.1,438h1.1c1.7,0,2.7-0.8,3.6-3.3l12.7-33.1h0.8l14.9,36.4h2.7v0.8h-12.5V438h3.9l-5.2-12.7h-12.9
				l-3.6,9.4c-0.8,2,0.4,3.3,3,3.3h1.7v0.8h-10.4V438H271.1z M292.9,424.5l-6.3-15.5l-5.9,15.5H292.9z"/>
		</g>
		<g>
			<path class="st0" d="M302,445.4c8.2,0.3,8.6-5.1,8.6-11.6v-31.2h-5v-0.8h15.5v0.8h-5v26.8c0,7.6-2.8,17.2-14.1,16.8V445.4z"/>
		</g>
	</g>
</g>
</svg>
